<svg width="1657" height="5" viewBox="0 0 1657 5" fill="none" xmlns="http://www.w3.org/2000/svg">
<path d="M115.587 0.483374C111.79 0.257895 124.468 0.405702 116.049 0.0689664C117.804 0.0462151 119.571 0.0227509 121.326 0C121.771 0.124708 122.228 0.249113 122.673 0.373822C120.316 0.410545 117.957 0.447262 115.587 0.483985C115.587 0.483781 115.587 0.483578 115.587 0.483374ZM112.368 2.04519C114.529 1.68949 121.394 1.59466 113.978 1.26642C113.388 1.38849 112.784 1.51054 112.195 1.63261C109.62 1.53793 107.03 1.44328 104.455 1.34912C103.529 1.39565 102.604 1.44225 101.679 1.48827C100.499 1.27614 99.3308 1.06344 98.1516 0.850788C99.1986 0.881836 100.26 0.913424 101.306 0.944472C105.445 0.77221 109.128 0.725099 114.747 0.69302C114.254 0.642826 113.759 0.593075 113.266 0.542881C116.117 0.628254 118.968 0.713842 121.807 0.799216C119.341 0.883021 116.584 0.976221 114.298 1.05433C117.955 1.38694 124.407 1.20182 127.764 1.13245C132.337 1.03776 131.304 1.19591 134.696 1.1297C135.238 1.11936 135.299 0.995392 136.37 0.993298C141.773 0.983466 152.267 1.04917 146.13 1.33843C137.237 1.30118 129.653 1.53346 120.929 1.4486C123.236 1.78306 118.641 1.89688 112.368 2.04519ZM275.733 0.980176C273.038 1.14262 267.55 1.07706 263.831 0.964308C263.827 0.964308 263.823 0.964308 263.819 0.964308C263 0.93947 261.147 0.723589 263.819 0.732386C268.173 0.747461 270.279 1.08728 272.565 0.856586C273.588 0.899533 274.662 0.937746 275.733 0.980176ZM285.198 0.960035C287.869 1.04334 286.657 1.2994 283.312 1.2301C283.312 1.23031 283.312 1.23051 283.312 1.23071C281.917 1.20173 284.657 0.999341 279.651 1.20477C278.628 1.04495 277.622 0.899547 276.611 0.744897C277.837 0.742311 278.955 0.738117 280.241 0.736048C279.376 0.99875 282.527 0.877379 285.198 0.960035ZM150.644 1.19379C151.065 0.957453 149.305 0.958946 146.309 0.794943C149.137 0.802704 151.965 0.810985 154.78 0.818746C153.397 0.943918 152.027 1.06862 150.644 1.19379ZM84.2172 1.15717C84.2132 1.15717 84.2086 1.15717 84.2044 1.15717C83.2778 1.19442 82.3487 1.23182 81.4342 1.26855C80.8806 1.18421 80.3334 1.10023 79.7798 1.01588C76.5069 1.09505 73.216 1.17422 69.9431 1.25391C70.3407 0.996256 76.2161 1.03818 79.4528 0.858112C84.2657 0.935735 86.5849 1.08529 86.8977 1.30365C86.0075 1.25503 85.1194 1.20579 84.2172 1.15717ZM871.377 2.18434C872.471 2.11295 873.552 2.04151 874.647 1.97012C873.192 1.93754 871.748 1.91267 870.28 1.87491C866.442 2.18534 866.081 1.91074 861.053 1.92984C845.638 1.98882 849.728 2.47099 835.807 1.76474C846.984 1.79834 842.688 1.46649 849.427 1.21088C850.823 1.40544 844.146 1.84426 848.67 1.93533C856.467 1.72941 863.964 1.53763 872.614 1.40465C872.362 1.37102 872.11 1.33728 871.858 1.30365C870.486 1.32486 869.126 1.34621 867.754 1.36742C869.234 1.27739 870.68 1.18813 872.185 1.09705C870.284 1.30143 875.129 1.18723 874.48 1.42205C874.192 1.52658 872.05 1.67159 870.787 1.77146C874.047 1.82578 877.391 1.87554 880.688 1.92831C878.98 2.01159 877.273 2.09496 875.577 2.17824C874.182 2.18082 872.797 2.18267 871.402 2.18526C871.394 2.18495 871.385 2.18465 871.377 2.18434ZM1573.13 1.09766C1568.99 1.34087 1561.47 1.38111 1557.51 1.11048C1562.72 1.10634 1567.92 1.1018 1573.13 1.09766ZM87.2119 1.48369C86.7434 1.44235 86.289 1.40145 85.8205 1.3601C87.8897 1.28353 89.9711 1.20749 92.0405 1.13093C92.4374 1.25041 92.8435 1.36991 93.2525 1.48888C91.2433 1.48733 89.2209 1.48524 87.2119 1.48369ZM219.604 1.35064C218.09 1.35787 217.956 1.35395 216.071 1.33691C216.073 1.33701 216.075 1.33711 216.077 1.33721C215.33 1.33085 209.077 1.26106 209.774 1.16907C212.878 1.16752 216.19 1.16907 219.367 1.16907C219.463 1.22958 219.484 1.28961 219.604 1.35064ZM183.059 1.29693C183.055 1.29673 183.051 1.29653 183.047 1.29632C181.917 1.28235 180.846 1.2539 179.68 1.24872C183.878 1.10394 184.542 1.36369 188.356 1.29022C192.17 1.21623 194.527 1.07291 197.763 1.42876C196.56 1.48206 195.264 1.55831 194.025 1.6204C188.61 1.47812 187.152 1.61202 182.809 1.75223C182.894 1.60012 182.975 1.44904 183.059 1.29693ZM802.75 1.46447C801.716 1.64039 800.562 1.46777 800.442 1.46569C800.444 1.46548 800.446 1.46528 800.448 1.46508C791.282 1.628 801.641 1.3677 792.99 1.34027C794.277 1.2963 795.544 1.24987 796.819 1.20538C798.791 1.29022 800.826 1.38636 802.75 1.46447ZM504.935 1.44799C504.851 1.39676 504.749 1.34542 504.665 1.29419C509.864 1.30609 511.189 1.10442 515.509 1.28808C511.984 1.34189 508.46 1.39531 504.935 1.4486C504.935 1.44839 504.935 1.44819 504.935 1.44799ZM245.806 1.72324C240.042 1.82104 235.778 1.86413 230.243 1.7089C230.238 1.7087 230.234 1.70849 230.23 1.70829C229.911 1.69873 231.454 1.59156 231.038 1.56456C229.896 1.58059 228.716 1.60523 227.562 1.62437C227.406 1.53854 227.257 1.45274 227.101 1.36742C230.349 1.39174 233.6 1.41604 236.86 1.44036C236.379 1.39017 235.886 1.34041 235.405 1.29022C238.172 1.26435 240.929 1.23858 243.696 1.21271C242.734 1.35341 241.774 1.49414 240.823 1.63536C242.483 1.66484 244.146 1.69324 245.806 1.72324ZM591.478 2.00857C590.563 1.95268 592.256 1.85895 590.836 1.81082C589.416 1.76331 586.799 1.8676 587.412 1.70982C589.324 1.68861 591.332 1.6643 593.28 1.64207C587.01 1.35755 580.756 1.61501 580.66 1.26367C586.677 1.35474 591.623 1.31243 597.448 1.21515C597.207 1.49403 591.381 1.73517 595.049 1.99697C593.871 2.00059 592.633 2.00589 591.491 2.00796C591.486 2.00816 591.482 2.00836 591.478 2.00857ZM3.00306 4.98083C-0.559174 4.95962 -8.7198 5.07343 -13.2206 4.91095C-14.3277 4.87091 -18.0167 4.35222 -17.9979 4.28385C-17.8895 4.05358 -13.3847 4.02224 -18.2095 3.87218C-16.5863 3.87063 -15.0114 3.86198 -13.4001 3.85784C-13.6891 3.70312 -13.9761 3.54881 -14.2531 3.39461C-16.2144 3.41789 -18.1782 3.4413 -20.1397 3.4651C-20.2359 3.41387 -20.332 3.36253 -20.4282 3.3113C-13.3767 3.31026 -17.5395 3.11254 -13.8811 2.92832C-17.2498 2.8352 -20.6434 2.74253 -24 2.6494C-22.0626 2.66079 -19.7773 2.66922 -18.0684 2.68267C-17.8398 2.42034 -21.9164 2.48288 -22.6149 2.43427C-26.5496 2.15952 -6.51728 2.29819 -4.87791 1.91641C-8.0781 1.87399 -11.4361 1.83259 -14.7083 1.79068C-13.7696 1.7436 -12.8188 1.69648 -11.8804 1.64939C-4.45676 1.91271 3.8686 2.00599 12.5191 2.17C13.3006 2.15914 14.084 2.14799 14.8533 2.13765C14.6249 2.0192 14.4085 1.9012 14.1801 1.78275C15.3594 1.76878 16.5529 1.75491 17.7326 1.74094C14.2554 2.13107 19.0706 2.12575 24.8824 2.36377C21.7902 2.50088 17.9761 2.41776 18.2392 2.67321C28.8515 2.47667 41.2796 2.75442 51.6032 2.53253C54.166 2.47769 54.1578 2.14815 60.1832 2.17854C59.9784 2.21476 59.9439 2.28016 59.8112 2.32777C70.2323 2.16994 76.555 2.07559 87.385 2.23652C86.7598 2.11808 86.1441 1.99915 85.5191 1.88071C83.2205 1.9397 80.9186 1.99962 78.632 2.05861C77.0679 1.86303 79.3796 1.77671 72.5208 1.77878C66.9013 1.78033 70.2465 1.86669 68.7182 1.92465C66.649 2.00377 64.8327 1.84812 62.6072 1.93655C60.8863 2.00434 62.7481 2.16571 58.2595 2.12483C60.0646 1.91578 61.9059 1.69991 63.7229 1.48827C64.8183 1.53536 65.9044 1.58317 66.9998 1.63078C65.8926 1.68666 64.8044 1.74182 63.6972 1.7977C67.5959 1.69732 71.2795 1.60264 75.3103 1.49864C73.9989 1.80084 78.1649 1.68754 80.4275 1.65183C83.9515 1.59601 80.9326 1.80399 83.2425 1.76932C85.553 1.73412 88.0446 1.50176 92.2201 1.55144C89.9824 1.68595 93.0263 1.80658 92.4381 1.93075C91.8487 2.05492 87.4318 2.08241 91.6751 2.21791C99.8334 2.11494 90.9806 1.64208 96.4909 1.56547C103.108 1.47337 104.684 2.24416 102.711 2.40985C101.159 2.54025 95.8171 2.51403 94.2528 2.64391C103.819 2.87831 103.902 2.41557 105.539 2.32502C111.483 1.99542 107.49 2.87513 114.529 2.55694C114.397 2.72145 114.289 2.86941 114.157 3.02719C115.372 2.99718 116.178 2.9573 117.646 2.93351C113.318 2.61297 116.86 2.62671 118.678 2.62621C121.542 2.62518 117.118 2.46883 117.876 2.42847C119.922 2.32046 123.157 2.3695 121.173 2.22828C122.063 2.294 123.028 2.35991 123.943 2.42511C127.289 2.34323 135.152 1.6566 127.668 1.79526C128.366 1.54015 130.787 1.66277 132.677 1.70158C134.565 1.74035 134.53 1.57788 136.191 1.60789C142.796 1.72795 138.475 2.00586 137.428 2.22371C146.152 2.07365 137.611 1.97437 150.183 1.87399C151.398 1.6965 145.589 1.50711 150.426 1.40465C151.317 1.713 154.879 1.9345 161.821 2.03695C162.495 1.96605 163.167 1.89453 163.841 1.82364C167.632 2.10824 165.694 2.40419 172.71 2.05129C168.943 2.70069 171.533 2.28524 177.814 2.54962C179.09 2.60292 176.142 2.73765 177.923 2.80595C178.73 2.83676 180.69 2.73505 182.662 2.81358C183.625 2.85239 188.125 3.10279 191.242 2.98386C188.956 2.66924 194.877 2.4016 189.799 2.14131C199.185 2.20548 205.754 2.05442 195.237 2.4834C197.619 2.57861 200.004 2.67342 202.387 2.76811C204.047 2.69308 205.722 2.61864 207.395 2.54412C207.647 2.8027 207.394 2.87524 213.936 2.82975C211.097 2.89079 208.27 2.95283 205.42 3.01438C205.324 3.06659 204.927 3.12086 205.022 3.17153C208.513 3.07222 218.344 3.02948 220.726 2.96067C223.109 2.89185 218.508 2.87301 219.194 2.80626C224.908 2.25581 224.455 2.66178 228.556 2.56732C230.963 2.51143 225.217 2.45075 226.504 2.42694C231.278 2.3397 233.493 2.63225 237.726 2.63598C236.222 2.46992 234.73 2.30129 233.263 2.13368C237.703 2.14248 242.653 2.14395 246.78 2.09066C248.401 2.06985 247.176 1.94635 247.441 1.93808C248.754 1.89564 254.096 1.82843 254.661 1.82791C258.919 1.82693 259.04 1.99798 263.177 2.00735C261.553 2.02183 260.026 2.03488 258.438 2.04885C257.717 2.32617 256.98 2.60348 256.258 2.88133C260.313 2.9015 264.369 2.92127 268.435 2.94144C265.464 2.84883 262.481 2.75666 259.509 2.66405C264.154 2.44 268.799 2.21544 273.444 1.99087C275.862 2.12851 278.271 2.26611 280.69 2.40375C287.258 2.36744 285.935 1.80873 289.052 2.29816C290.988 2.25679 292.925 2.21544 294.861 2.17457C294.585 2.24441 294.311 2.31439 294.034 2.38422C296.368 2.34127 298.702 2.2986 301.037 2.25514C298.582 2.00782 296.176 1.74756 293.746 1.50749C298.339 1.45375 298.428 1.66356 299.113 1.71592C300.93 1.8546 304.537 1.66754 305.981 1.79587C306.469 1.83993 301.967 1.97805 303.518 2.13735C303.821 2.16822 309.849 2.75379 313.695 2.61858C313.623 2.5125 313.325 2.38243 313.169 2.26704C318.341 2.20261 320.979 2.75633 320.293 2.91154C323.049 2.80288 327.077 2.7938 327.642 2.62408C329.05 2.61994 330.447 2.61601 331.855 2.61187C330.388 3.02523 336.26 2.94964 336.645 2.59417C334.227 2.58537 331.805 2.57611 329.386 2.56732C331.215 2.13162 323.865 1.86863 339.159 2.27223C342.083 2.49888 333.961 2.24135 336.344 2.41107C340.483 2.50986 344.368 2.42721 348.303 2.58502C353.199 2.78216 347.175 2.97177 358.582 2.72081C333.421 2.09211 362.033 2.2961 373.85 2.10103C377.099 2.72199 387.079 2.91867 400.821 2.73393C399.39 2.56111 395.066 2.65015 392.575 2.59326C390.084 2.53634 392.779 2.43381 389.676 2.35309C386.573 2.27239 379.981 2.16268 376.839 2.04061C379.5 1.9428 392.635 1.71155 383.95 1.98934C390.434 2.16058 393.479 2.33656 401.514 2.36866C403.921 2.09907 403.742 1.9312 411.575 1.92343C406.943 2.29804 415.843 2.5584 413.884 2.94541C408.329 2.85527 411.434 2.47912 408.221 2.29908C407.892 2.28109 402.717 2.37538 401.514 2.36866C406.736 2.70656 408.542 2.83233 405.329 3.2344C409.024 3.19921 411.322 3.24969 411.659 3.05771C412.428 3.14099 413.203 3.22435 413.961 3.30764C415.163 3.30556 416.245 3.29785 417.519 3.2994C415.764 3.00981 419.166 3.18808 421.585 3.05679C424.004 2.92536 420.759 2.69676 427.401 2.69365C425.187 2.62587 423.163 2.5677 421.021 2.50354C425.304 2.42903 429.601 2.35405 433.884 2.27955C430.876 2.10261 424.357 1.83978 424.535 1.60698C426.508 1.69487 433.266 1.5404 434.006 1.53404C436.87 1.51024 435.309 1.65706 435.526 1.66068C440.025 1.73203 443.731 1.68204 445.44 1.90451C448.82 1.80413 451.371 1.86136 454.956 1.85568C456.929 1.85258 456.545 1.68918 457.7 1.72019C465.377 1.92716 458.063 2.13832 472.872 1.73636C471.08 1.62254 469.31 1.50609 467.518 1.39123C469.19 1.34828 470.853 1.30509 472.526 1.26214C473.645 1.28284 474.754 1.3037 475.873 1.3244C475.849 1.5712 475.82 1.81852 475.796 2.06533C477.024 2.07878 478.256 2.09185 479.484 2.1053C477.378 2.12962 475.267 2.15392 473.161 2.17824C472.968 2.22166 472.789 2.26511 472.596 2.30854C475.725 2.37581 478.843 2.44368 481.972 2.51147C482.032 2.42562 482.091 2.33916 482.151 2.25331C489.202 2.37284 489.371 2.44552 496.073 2.20906C501.235 2.21165 505.439 1.85268 508.423 1.70158C509.494 1.74969 510.566 1.79842 511.649 1.84653C512.334 1.77512 513.028 1.70402 513.713 1.63261C515.073 1.73195 516.451 1.83132 517.811 1.93014C518.569 1.70465 518.961 1.63425 513.656 1.5551C515.473 1.27464 524.813 1.39836 528.616 1.49254C531.501 1.56401 528.3 1.79793 528.661 1.82639C529.865 1.92306 534.62 1.83964 535.618 1.85568C539.842 1.92243 542.801 1.91074 546.616 1.96249C547.359 1.97284 549.434 2.1211 549.611 2.12575C550.982 2.1511 554.368 2.22316 554.753 2.22523C574.616 2.3359 553.392 1.6927 571.862 1.76047C571.309 1.67565 570.8 1.5914 570.259 1.50658C571.654 1.50141 573.064 1.49649 574.459 1.49132C576.228 1.56221 574.088 1.69113 577.601 1.58714C577.372 1.69166 577.143 1.79623 576.902 1.90024C578.43 1.84383 579.904 1.78788 581.468 1.73148C583.922 2.09421 592.884 2.17658 592.247 2.60241C592.031 2.7473 585.677 2.89597 589.035 3.05069C591.762 3.08115 589.916 2.90811 591.029 2.89903C599.067 2.8359 598.6 3.07845 601.885 3.01377C602.403 2.90981 602.946 2.80383 603.475 2.69884C604.714 2.72935 605.957 2.75987 607.208 2.79039C607.496 2.72053 607.797 2.6506 608.086 2.58074C606.919 2.57609 605.605 2.57136 604.534 2.56671C606.027 2.29614 619.741 2.1746 614.511 2.40528C612.382 2.49892 608.481 2.45914 610.946 2.77879C614.616 2.73274 618.78 2.68569 622.642 2.63964C622.763 2.70846 622.875 2.77741 622.995 2.84623C628.201 2.80168 623.466 2.52652 623.476 2.37903C624.667 2.3749 625.87 2.37127 627.061 2.36713C627.565 2.43381 628.045 2.50361 628.574 2.56823C628.622 2.46211 629.29 2.21545 632.838 2.30701C635.12 2.36661 631.527 2.63435 635.878 2.59722C635.553 2.43167 633.981 2.23003 638.828 2.17671C639.309 2.3495 639.974 2.50779 640.347 2.68938C646.375 2.52338 649.118 2.79022 656.193 2.59722C660.681 2.4751 666.829 2.04158 669.729 2.70952C673.012 2.7271 671.97 2.56077 672.942 2.52337C677.527 2.3464 680.937 2.66312 681.791 2.68175C687.24 2.80117 689.683 2.69153 694.122 2.84105C693.882 2.71737 693.751 2.6003 693.558 2.47974C689.491 2.66499 687.431 2.65629 681.727 2.61645C683.64 2.59162 685.554 2.56621 687.466 2.54138C687.154 2.44102 686.844 2.34064 686.543 2.24079C668.902 2.63614 673.017 2.01152 687.806 1.87491C689.082 2.06064 690.403 2.24588 691.667 2.43213C700.21 2.15064 704.23 2.39501 713.892 2.45349C715.041 2.46018 719.225 2.35319 721.023 2.34791C720.993 2.34719 720.963 2.34648 720.933 2.34577C722.052 2.17038 720.537 2.08966 720.356 1.93289C721.331 1.91323 722.306 1.89365 723.28 1.87399C725.456 1.99349 724.691 2.09165 728.974 2.06319C728.397 1.94419 727.827 1.82516 727.25 1.70615C731.943 1.70201 735.014 1.83131 739.382 1.77542C738.648 1.82044 737.923 1.86559 737.189 1.91061C746.695 2.02549 739.13 2.72515 746.314 2.3769C746.771 2.43793 747.216 2.49957 747.673 2.5606C744.714 2.57561 741.752 2.59015 738.805 2.60516C738.745 2.69154 738.68 2.77755 738.632 2.86393C741.797 2.83806 744.976 2.81138 748.141 2.78551C745.831 2.84346 743.507 2.90149 741.197 2.95945C744.867 3.00084 748.537 3.04226 752.207 3.08365C748.31 2.766 753.362 2.72716 752.412 2.4126C758.91 2.67444 764.014 3.01958 774.086 2.79863C776.083 2.75461 774.998 2.53479 780.666 2.80229C779.294 2.45253 786.393 2.28841 785.481 1.95577C783.508 1.97181 781.462 1.9819 779.55 2.00155C781.728 2.11694 782.089 2.43436 778.78 2.52856C774.557 2.64861 768.396 2.42861 768.649 2.78093C766.964 2.76438 765.398 2.75461 763.762 2.74065C764.436 2.65325 765.095 2.5653 765.757 2.4779C761.102 2.61493 758.177 2.57037 755.939 2.35004C761.485 2.29934 767.02 2.24917 772.567 2.19899C771.749 2.184 770.921 2.1689 770.104 2.15443C774.304 1.92934 769.972 1.71613 777.806 1.66801C777.758 1.77096 777.719 1.87398 777.671 1.97744C780.523 1.70215 788.331 1.70364 785.84 1.38696C788.199 1.48423 788.68 1.54575 790.015 1.37505C796.236 1.61567 800.232 1.91995 798.018 2.28321C800.328 2.22475 802.639 2.16621 804.937 2.10774C803.602 2.00841 802.265 1.90954 800.929 1.81021C804.948 1.81642 808.997 1.82253 813.004 1.82822C813.389 2.12209 805.268 1.91737 807.611 2.18007C808.08 2.2328 810.243 2.11985 810.811 2.14955C816.803 2.47087 807.396 2.23872 809.163 2.48492C818.091 2.56099 810.947 2.97352 823.245 2.62682C823.569 2.71167 823.919 2.79822 824.219 2.88255C828.488 2.88764 828.142 2.696 831.812 2.65978C834.11 2.63725 836.994 2.97378 839.532 2.74461C839.985 2.70237 835.715 2.29105 844.688 2.30915C851.652 2.32318 848.753 2.61385 852.518 2.71685C856.284 2.81982 864.9 2.41678 867.439 2.8737C865.467 2.81318 862.954 2.78053 860.764 2.73088C859.874 2.81987 859.007 2.9079 858.128 2.99637C863.134 2.8815 868.309 3.01689 871.678 2.80473C878.357 3.12918 885.826 2.82809 883.804 2.46173C881.606 2.51455 883.997 2.6743 880.944 2.5725C880.631 2.48712 880.302 2.40216 879.989 2.31678C885.187 2.32713 888.798 2.32473 886.427 2.58502C887.233 2.59123 888.032 2.59742 888.838 2.60363C888.982 2.41527 889.11 2.22622 889.255 2.03786C890.217 2.01665 891.184 1.9956 892.147 1.97439C893.217 2.01576 894.29 2.05762 895.372 2.09951C893.916 2.39756 891.436 2.40741 899.643 2.57403C899.667 2.47105 899.702 2.36849 899.726 2.26551C906.597 2.39642 906.778 2.64587 915.405 2.63659C908.787 2.99411 905.166 2.36036 905.19 3.07754C903.529 3.03046 901.855 2.98273 900.195 2.93565C899.942 3.03966 899.691 3.14381 899.451 3.24782C908.367 3.19296 923.177 2.50894 929.147 2.9625C929.869 2.90715 930.593 2.85904 931.327 2.79954C937.175 3.07328 939.701 2.45872 945.633 2.81267C946.245 2.84981 944.965 3.4272 952.687 3.40651C952.495 3.33147 952.395 3.20516 952.238 3.1105C953.911 3.15654 955.574 3.20472 957.234 3.25179C957.534 3.18248 957.85 3.1132 958.151 3.04337C955.299 3.01646 952.455 2.9891 949.603 2.96219C951.972 2.9384 954.357 2.91458 956.727 2.89079C953.635 2.7775 952.241 2.7763 954.104 2.59478C956.788 2.58391 959.475 2.57239 962.159 2.56152C962.435 2.51501 962.709 2.46796 962.986 2.42145C961.686 2.28278 960.374 2.14717 959.074 2.00643C966.065 2.11975 972.143 2.1259 977.51 2.39856C978.424 2.44461 975.19 2.62527 981.422 2.46234C981.518 2.55802 981.685 2.63572 981.793 2.72417C989.423 2.45612 991.929 2.53613 999.883 2.72966C994.733 2.54907 999.328 2.66652 1000.64 2.56976C1001.54 2.50309 998.031 2.51294 998.428 2.44312C998.825 2.37378 1003.38 2.09381 999.486 2.06014C989.931 2.63401 987.328 1.9479 975.054 2.22371C976.943 2.14971 978.846 2.07555 980.735 2.00155C979.846 1.9514 979.049 1.90589 978.087 1.85263C984.933 1.9649 981.603 1.89196 984.416 1.8035C987.232 1.71501 992.35 1.63984 995.779 1.61552C996.859 1.60788 995.72 1.73659 998.158 1.74857C999.819 1.75685 1004.36 1.56604 1005.4 1.79099C1006.09 1.93742 998.8 2.34063 1008.88 2.33967C1010.78 2.48322 1005.94 2.43864 1005.84 2.45593C1004.96 2.6267 1011.16 2.75509 1014.02 2.62469C1014.25 2.61344 1011.99 2.48037 1014.45 2.42816C1020.29 2.30345 1023.66 2.45606 1027.44 2.66253C1027.85 2.42035 1032.76 2.13113 1038.87 2.22065C1039.18 2.15135 1039.48 2.08144 1039.79 2.01162C1038.85 2.0483 1037.9 2.08449 1036.95 2.12117C1035.91 2.0777 1034.82 2.04606 1033.81 1.99484C1039.95 1.93528 1040.82 1.60153 1043.77 1.47942C1053.86 1.06228 1047.74 1.94466 1045.92 2.09676C1044.61 2.03518 1043.34 1.96644 1042.05 1.90176C1042.19 1.98611 1042.34 2.0711 1042.47 2.15596C1057.57 2.15338 1044.77 2.70348 1052.43 2.86027C1054.41 2.44529 1060.04 2.4053 1067.21 2.66863C1068 2.66656 1068.8 2.66603 1069.59 2.66344C1069.73 2.60294 1069.72 2.51045 1069.94 2.47058C1078.58 2.40021 1080.12 3.03928 1080.94 3.09982C1084.57 3.36834 1087.4 2.99681 1088.47 2.99363C1092.98 2.98069 1094.3 3.14566 1098.59 3.0748C1103.21 2.99823 1100.05 2.87165 1101.46 2.75835C1102.58 2.66837 1106.23 2.65234 1107.73 2.55908C1107.14 2.63536 1106.47 2.71016 1105.88 2.78673C1110.66 2.89072 1114.58 2.99208 1120.01 3.01743C1126.15 2.45929 1131.37 3.4008 1129.26 2.6372C1124.1 2.58493 1121.22 2.49792 1118.47 2.30335C1121.85 2.27852 1125.23 2.25434 1128.61 2.2295C1129.6 2.31331 1130.3 2.39499 1131.47 2.48035C1133.99 2.30237 1139.85 2.37875 1142.15 2.32654C1152.92 2.08179 1149.59 1.77822 1159.42 2.2884C1152.33 2.33811 1152.35 2.5859 1145.32 2.55175C1146.83 2.72872 1150.41 2.69206 1148.1 2.90421C1154.89 2.85196 1152.7 2.66254 1155.34 2.49438C1157.62 2.34942 1162.22 2.3413 1161.96 2.15291C1162.43 2.25649 1162.79 2.35676 1163.26 2.46021C1167.66 2.45917 1172.07 2.4591 1176.47 2.45807C1174.59 2.5662 1172.72 2.67453 1170.84 2.78215C1172.26 2.82299 1173.68 2.86368 1175.1 2.90452C1185.93 2.56817 1204.6 3.18461 1201.62 2.33967C1206.84 2.31276 1207.5 2.41874 1210.33 2.57861C1210.65 2.51446 1210.95 2.46111 1211.26 2.38971C1214.63 2.45686 1217.22 2.21603 1220.19 2.27863C1223.16 2.34076 1223.9 2.56823 1224.33 2.18587C1226.26 2.29555 1228.17 2.38666 1230.09 2.48859C1231.24 2.40172 1232.39 2.31585 1233.54 2.2295C1235.34 2.27504 1237.15 2.32038 1238.95 2.36591C1239.92 2.18339 1247.02 2.26206 1250.14 2.13948C1253.11 2.33623 1253.03 2.95572 1260.02 2.84471C1259.84 2.69106 1259.66 2.53786 1259.48 2.38422C1261.08 2.4163 1262.68 2.44827 1264.3 2.48035C1264.39 2.53049 1264.48 2.58064 1264.57 2.63079C1263.75 2.61527 1262.95 2.59983 1262.13 2.5838C1262.84 2.66866 1263.53 2.75313 1264.23 2.83799C1266.67 2.71227 1269.12 2.58654 1271.57 2.46082C1268.27 2.36563 1264.96 2.27037 1261.65 2.17519C1265.8 2.06238 1268.69 2.1749 1272.3 2.04915C1275.44 2.26128 1274.28 2.38351 1273 2.6137C1274.17 2.59405 1275.35 2.57507 1276.52 2.55542C1275.75 2.78564 1277.72 2.92282 1270.9 2.90421C1271.37 2.96988 1271.85 3.03249 1272.31 3.10074C1273.42 3.09039 1274.15 3.1459 1275.38 3.12057C1278.72 3.05123 1281.29 2.64685 1281.06 2.50506C1280.93 2.43079 1277.64 2.57283 1277.77 2.46783C1278.1 2.2118 1285.66 2.32675 1274.75 2.0696C1278.37 1.9066 1279.18 2.02953 1283.17 2.07662C1282.86 1.9913 1282.56 1.90652 1282.26 1.8212C1284.11 1.86051 1285.96 1.89968 1287.82 1.93899C1285.24 2.37726 1298.9 2.54187 1286.61 2.92527C1290.24 2.94493 1293.86 2.96469 1297.48 2.98539C1296.73 3.0304 1295.99 3.07495 1295.24 3.11996C1293.61 3.09616 1291.98 3.07275 1290.34 3.04947C1292.27 3.13172 1294.2 3.21348 1296.12 3.29573C1300.67 3.19379 1302.45 3.03701 1304.53 2.84349C1299.24 2.70226 1300.97 2.89517 1296.85 2.93351C1296.99 2.81095 1296.8 2.69822 1297.16 2.56945C1299.29 2.82332 1306.24 2.63863 1307.86 2.62621C1312.76 2.5885 1308.92 2.83794 1312.2 2.84318C1315.48 2.84836 1319.36 2.69989 1322.04 2.94724C1321.99 2.80861 1321.78 2.66517 1321.59 2.53894C1326.7 2.4934 1325.68 2.65718 1326.21 2.67839C1334.66 3.02715 1339.24 2.73271 1348.9 2.69701C1347.68 2.65407 1346.44 2.6153 1345.2 2.57495C1352.49 2.28059 1347.57 2.37072 1341.25 2.27345C1347.18 2.30294 1350.58 2.05226 1354.76 1.97775C1358.95 1.90336 1366.13 2.03211 1368.76 2.13246C1362.75 2.29391 1356.27 2.18744 1349.61 2.23194C1350.37 2.37317 1351.1 2.4927 1351.88 2.64788C1355.94 2.35146 1358.29 2.54966 1359.62 2.58898C1363.55 2.70432 1363.42 2.44991 1365.79 2.72356C1365.7 2.62942 1365.63 2.55027 1365.53 2.46234C1373.63 2.50167 1382.36 2.66809 1387.63 2.32044C1388.12 2.54655 1388.48 2.76439 1389.03 2.99515C1392.46 2.82495 1395.4 2.99924 1398.29 2.95945C1401.16 2.9196 1400.07 2.73687 1403.45 2.66649C1404.07 2.65356 1405.38 2.76793 1406.92 2.68358C1408.47 2.59879 1414.21 1.96833 1414.89 2.5191C1417.79 2.52169 1420.54 2.54183 1423.38 2.55114C1420.61 2.58219 1417.84 2.61226 1415.09 2.6433C1417.44 2.77679 1419.79 2.90988 1422.15 3.04337C1422.45 2.92435 1422.75 2.80318 1423.04 2.68572C1429.39 2.54083 1434 2.73542 1440.42 2.68938C1441.49 2.68162 1438.96 2.44631 1443.71 2.50628C1448.46 2.56631 1451.99 3.00549 1460.09 2.83586C1460.5 2.82706 1462.9 2.4907 1465.8 2.72356C1466.46 2.77633 1463.68 2.85443 1465.19 2.92374C1466.71 2.99308 1473.47 3.0501 1474 3.21517C1473.93 3.15672 1473.51 3.09615 1473.3 3.03665C1474.46 3.00872 1475.63 2.98076 1476.79 2.95334C1476.9 3.05631 1477.02 3.15942 1477.13 3.26186C1483.77 3.02229 1487.2 2.63148 1497.04 2.76079C1494.28 2.61126 1491.51 2.46112 1488.75 2.31159C1487.99 2.41664 1487.23 2.52239 1486.49 2.62743C1481.95 2.58553 1477.4 2.54392 1472.87 2.50201C1472.12 2.62155 1471.39 2.74074 1470.64 2.86027C1469.44 2.84475 1468.25 2.82971 1467.05 2.81419C1467.35 2.72778 1467.65 2.64183 1467.96 2.55542C1465.58 2.57663 1463.2 2.59829 1460.83 2.6195C1465.65 2.10944 1474.3 2.66288 1473.68 2.23622C1474.75 2.30242 1475.82 2.36908 1476.89 2.43579C1477.36 2.22891 1479.54 2.28845 1483.37 2.32105C1482.49 2.21911 1481.52 2.11856 1480.72 2.01559C1484.45 2.15942 1491.07 2.14545 1494.93 2.20082C1496.62 2.22514 1494.93 2.37513 1495.43 2.39276C1498.02 2.48487 1502.97 2.22315 1504 2.24385C1510.19 2.36702 1514.21 2.86322 1520.96 2.53619C1513.99 2.45547 1517.78 2.48956 1515.3 2.30793C1514.52 2.25098 1505.52 2.13219 1516.79 2.18495C1518.12 2.19155 1538.57 2.53439 1531.84 2.7971C1535.15 2.71327 1537.74 2.61634 1540.78 2.52734C1548.19 3.21971 1545.62 2.56928 1543.47 2.21119C1544.69 2.20964 1545.84 2.20601 1547.09 2.20601C1544.43 2.5822 1557.98 2.60556 1562.58 2.41565C1564.12 2.35252 1559.81 2.23211 1563.37 2.17519C1565.07 2.20157 1566.99 2.23573 1568.79 2.26521C1566.19 2.02719 1571.29 1.93547 1571.22 1.69334C1574.48 1.9091 1576.97 2.36643 1575.18 2.61431C1577.88 2.51394 1580.58 2.4137 1583.28 2.31281C1582.03 2.25538 1580.76 2.19844 1579.51 2.14101C1588.32 2.29314 1599.64 1.94696 1601.48 2.45563C1602.65 2.45201 1603.83 2.44887 1605 2.44525C1605.36 2.35935 1605.71 2.27329 1606.07 2.18739C1611.35 2.26189 1616.62 2.33688 1621.9 2.41138C1617.2 2.46469 1616.08 2.58695 1611.15 2.48767C1613.05 2.58646 1614.98 2.6858 1616.85 2.78459C1624.27 2.51862 1625.29 2.34382 1636.46 2.42298C1636.97 2.4266 1645.42 2.64964 1645.7 2.67138C1647.03 2.77072 1645.02 2.91504 1645.61 2.96525C1647.25 3.106 1657.19 3.45941 1657 3.5127C1654.57 4.16678 1621.11 4.17545 1612.06 4.20908C1518.2 4.55783 1426.4 4.09125 1333.13 4.17094C1332.18 4.17217 1332.59 4.26872 1332.19 4.27286C1329.65 4.29711 1327.15 4.14663 1326.22 4.14042C1324.21 4.12762 1325.31 4.26666 1323.85 4.26676C1308.71 4.2652 1294.43 4.18345 1279.28 4.20725C1278.29 4.2088 1279.3 4.09756 1277.56 4.11723C1276.67 4.12799 1273.87 4.29866 1271.85 4.30124C1264.8 4.31003 1258.88 4.25532 1251.44 4.25791C1247.37 4.25945 1241.27 4.24494 1236.72 4.24753C1234.71 4.24863 1232.62 4.32671 1230.64 4.32931C1227.82 4.33294 1228.4 4.17466 1227.96 4.16483C1226.06 4.12189 1225.8 4.29561 1223.99 4.29147C1220.64 4.28319 1220.46 4.16721 1216.2 4.17704C1213.15 4.18428 1206.18 4.27586 1202.34 4.30277C1193.37 4.16824 1182.06 4.22165 1173.68 4.26615C1168.72 4.29253 1168.26 4.13014 1166.24 4.13065C1159.12 4.1338 1153.71 4.3412 1147.02 4.34793C1138.15 4.35669 1130.28 4.21955 1121.68 4.20969C1120.28 4.20814 1120.6 4.35693 1119.23 4.36075C1114.17 4.37472 1107.69 4.4018 1103.18 4.38058C1098.15 4.35727 1096.29 4.1413 1091.37 4.18528C1089.93 4.19834 1089.5 4.3877 1087.09 4.41201C1083.22 4.45024 1078.99 4.28326 1076.29 4.26462C1072.6 4.23978 1075.81 4.4327 1070.83 4.40682C1070.63 4.40571 1069.88 4.26781 1068.81 4.27439C1065.69 4.29301 1066 4.40161 1061.44 4.39126C1061.01 4.38983 1054.96 4.25843 1054.36 4.25791C1050.82 4.25584 1043.7 4.20983 1041.6 4.23777C1034.12 4.33712 1040.01 4.54453 1033.64 4.09434C1030.84 4.20453 1028.06 4.31622 1025.09 4.4233C1027.07 4.32343 1019.03 4.17932 1018.46 4.18863C1013.78 4.26368 1016.57 4.43885 1010.64 4.40988C1018.47 4.00522 1002.98 4.35772 999.53 4.36807C982.901 4.41825 967.785 4.31727 951.071 4.31985C945.476 4.32091 937.978 4.40645 932.058 4.40438C930.678 4.40426 931.721 4.3085 930.506 4.30643C929.295 4.30501 930.639 4.41251 929.256 4.40682C920.652 4.36955 913.911 4.16671 906.03 4.42025C905.646 4.38359 905.658 4.35463 905.023 4.31436C898.573 4.54151 886.152 4.23604 881.483 4.19413C874.18 4.12897 872.315 4.2825 867.01 4.2515C859.995 4.2101 849.462 3.91015 854.166 4.4053C849.353 4.42082 844.72 4.4251 839.859 4.37906C839.318 4.37384 839.691 4.24798 839.475 4.24539C838.103 4.22733 837.657 4.34001 836.73 4.34518C834.218 4.3591 838.318 4.22418 834.736 4.26187C832.847 4.28205 831.774 4.38033 826.528 4.38241C794.904 4.39328 760.572 4.35808 728.154 4.34152C725.927 4.34049 727.393 4.46219 724.601 4.45443C714.902 4.4275 697.542 4.22267 689.178 4.25058C680.816 4.27852 682.703 4.4565 677.469 4.53103C676.458 4.54551 677.287 4.44408 676.373 4.44253C670.224 4.43321 662.893 4.275 657.911 4.25119C654.617 4.23524 654.881 4.39482 652.595 4.40621C649.19 4.42277 645.685 4.26156 643.868 4.25638C635.326 4.23365 629.453 4.3635 621.475 4.29727C621.788 4.33239 621.993 4.3649 622.258 4.3995C612.812 4.39381 603.379 4.3881 593.934 4.38241C594.379 4.41449 594.81 4.44685 595.255 4.47945C584.172 4.46185 585.437 4.11413 586.412 4.84839C585.606 4.87426 584.752 4.90424 583.982 4.92804C584.294 4.5498 577.591 4.273 569.06 4.17673C568.434 4.16949 564.235 4.53828 564.693 4.10258C563.598 4.20917 562.945 4.28265 562.019 4.37631C560.214 4.2444 558.386 4.11405 556.581 3.98265C555.607 4.00231 554.618 4.02128 553.644 4.04094C553.5 4.12632 553.611 4.21497 553.298 4.2988C548.774 4.31173 539.495 4.20618 535.92 4.21701C527.039 4.24444 517.998 4.47528 511.091 4.22586C507.726 4.25129 511.067 4.41887 506.063 4.39767C505.498 4.31283 504.966 4.23151 504.377 4.14408C500.287 4.52316 499.433 4.29256 493.828 4.21335C490.038 4.15954 487.556 4.25219 483.947 4.2341C483.032 4.22945 483.161 4.11818 482.536 4.1218C480.44 4.13328 474.461 4.28642 472.981 4.29056C459.577 4.33091 448.062 4.31374 435.295 4.27286C433.923 4.26872 435.702 4.37852 434.282 4.37387C431.997 4.36656 433.342 4.19783 432.018 4.18955C428.327 4.16741 428.299 4.34533 423.15 4.35464C406.195 4.38515 386.702 4.2515 368.99 4.2396C368.436 4.2396 368.469 4.34384 367.868 4.34488C363.946 4.34997 359.976 4.20906 356.415 4.21061C350.507 4.21268 346.066 4.35913 340.23 4.35861C328.822 4.35809 318.63 4.2831 306.898 4.27896C297.295 4.27534 288.955 4.28924 278.426 4.28873C232.434 4.28666 185.503 4.61755 139.198 4.44161C138.02 4.43696 138.499 4.34486 138.14 4.34884C134.723 4.38869 134.418 4.51296 133.202 4.25272C128.849 4.30401 127.475 4.49952 122.218 4.48556C119.416 4.47823 121.508 4.1752 116.767 4.33145C112.486 4.4727 117.21 4.63878 104.481 4.46908C104.144 4.46441 102.485 4.2797 99.8381 4.32779C97.1789 4.37539 100.257 4.50766 93.8552 4.5475C78.8262 4.64064 59.8028 4.48097 42.3308 4.53011C41.2359 4.53321 30.6899 4.63197 28.6082 4.6775C24.5792 4.76598 25.4212 4.90325 20.1885 4.93689C16.1452 4.96276 12.8093 4.80727 8.05602 4.83832C7.50253 4.8421 6.57506 5.00203 3.00306 4.98083ZM888.825 1.8743C889.812 1.71737 891.593 1.13977 897.559 1.31555C898.124 1.3321 895.072 1.72932 898.367 1.79251C895.142 1.83443 892.002 1.848 888.825 1.87491C888.825 1.8747 888.825 1.8745 888.825 1.8743ZM-22.8585 1.29785C-18.3944 1.32683 -13.9144 1.35554 -9.45002 1.38451C-12.5309 1.45437 -15.6153 1.52409 -18.684 1.59446C-20.0797 1.49565 -21.4632 1.39666 -22.8585 1.29785ZM532.887 1.57219C532.883 1.57219 532.878 1.57219 532.874 1.57219C537.567 1.49767 542.263 1.42302 546.956 1.3485C546.462 1.40336 545.968 1.45844 545.474 1.51329C541.769 1.59969 538.061 1.68597 534.368 1.77237C533.875 1.70564 533.38 1.63892 532.887 1.57219ZM495.81 2.15291C492.813 2.08771 493.547 1.97775 491.898 1.87063C491.898 1.87084 491.898 1.87104 491.898 1.87125C491.463 1.84336 489.437 1.81896 488.653 1.81479C488.942 1.88361 489.315 1.95155 489.628 2.01986C482.637 2.18648 468.964 1.59438 486.666 1.35583C486.401 1.44274 486.148 1.52922 485.883 1.61613C494.68 1.59181 504.486 1.78034 495.81 2.15291ZM959.555 1.62406C967.064 1.33946 969.472 1.27946 978.581 1.47454C977.294 1.5552 976.007 1.63586 974.721 1.71653C973.216 1.63425 971.723 1.55254 970.219 1.47026C970.215 1.47026 970.21 1.47026 970.206 1.47026C969.905 1.55668 969.604 1.64324 969.315 1.72965C966.066 1.69447 962.804 1.65925 959.555 1.62406ZM208.376 1.94723C206.283 1.37882 206.887 1.70921 212.865 1.58104C214.934 1.53654 212.917 1.43708 214.205 1.42052C221.158 1.33008 221.714 1.71091 220.162 1.90909C216.227 1.92254 212.252 1.93481 208.389 1.94723C208.384 1.94723 208.381 1.94723 208.376 1.94723ZM27.9733 2.06533C27.969 2.06533 27.9647 2.06533 27.9604 2.06533C27.7803 1.92668 30.5829 1.88939 27.4218 1.75803C29.8267 1.75855 32.2318 1.75965 34.6487 1.76017C33.9399 1.77308 33.2155 1.7854 32.507 1.79831C33.1324 1.84592 33.7602 1.89413 34.3858 1.94174C35.2403 1.78237 36.0337 1.87501 38.5603 1.92831C37.8624 1.75807 37.1677 1.58771 36.4698 1.41747C39.4053 1.46817 42.3515 1.51905 45.287 1.56975C45.323 1.61265 45.3601 1.65562 45.396 1.69852C46.5026 1.64369 47.5982 1.58826 48.7048 1.53343C49.0058 1.58465 49.2953 1.6354 49.5962 1.68662C50.9312 1.64783 52.2689 1.60906 53.604 1.56975C54.0104 1.69382 51.0676 1.74744 56.2844 1.71592C54.6844 1.8432 53.0872 1.97009 51.4751 2.09737C43.6415 2.08702 35.8068 2.07619 27.9733 2.06533ZM262.76 1.77237C254.133 1.79618 256.563 1.70626 258.56 1.4248C259.956 1.54067 261.365 1.6565 262.76 1.77237ZM707.262 2.02291C709.765 1.83093 712.278 1.64087 714.841 1.45562C719.943 1.3485 725.047 1.69841 721.209 1.83554C716.588 2.00008 711.762 1.81593 707.262 2.02291ZM823.469 1.93746C817.227 1.84844 823.1 1.62033 824.508 1.48735C826.235 1.70107 828.643 1.68222 832.511 1.70707C828.879 1.72092 824.501 1.95258 823.469 1.93808C823.469 1.93787 823.469 1.93767 823.469 1.93746ZM606.804 1.80716C604.302 1.8129 601.814 1.86652 599.577 1.80136C600.252 1.61779 604.726 1.7848 601.526 1.51268C603.126 1.50803 604.728 1.50351 606.316 1.49834C605.307 1.61109 606.665 1.69535 606.797 1.80655C606.799 1.80675 606.801 1.80696 606.804 1.80716ZM346.354 1.55601C351.263 1.77335 352.194 1.68035 357.14 1.52977C357.836 1.70672 351.94 2.00313 348.245 2.06838C347.62 1.89763 346.991 1.72676 346.354 1.55601ZM1507.64 1.64665C1506.46 1.8722 1497.76 1.90161 1493.44 1.83493C1493.95 1.80148 1494.47 1.76758 1494.99 1.73362C1499.2 1.70464 1503.43 1.67562 1507.64 1.64665ZM834.351 1.72233C833.704 1.71572 833.09 1.71079 832.511 1.70707C833.155 1.70461 833.776 1.70845 834.351 1.72233ZM1095.75 2.70128C1093.69 2.91393 1099.81 2.98538 1092.38 2.90208C1092.38 2.90228 1092.38 2.90248 1092.38 2.90269C1087.47 2.84784 1086.39 2.83319 1081.84 2.81663C1083.48 2.54345 1092.71 2.44581 1079.99 2.38941C1079.82 2.38916 1080.15 2.55171 1078.12 2.52948C1077.49 2.52256 1075.49 2.38916 1072.43 2.35035C1071.45 2.33793 1064.03 2.29679 1074.14 2.2942C1073.84 2.10377 1074.38 1.91103 1074.36 1.72629C1078.3 1.67261 1081.34 2.04548 1085.51 2.03634C1091.71 2.02185 1094.86 1.64479 1096.05 2.13948C1090.84 2.26102 1081.89 2.26394 1080.73 1.96646C1075.68 1.96283 1074.24 2.20657 1078.3 2.32716C1095.71 2.17399 1083.08 2.68894 1098.33 2.49438C1098.51 2.42558 1099.14 2.35154 1099.04 2.28687C1103.69 2.52899 1096.48 2.62522 1095.75 2.70128ZM1059.34 2.17519C1062.35 2.02978 1065.35 1.8832 1068.34 1.73728C1068.34 1.97427 1066.69 2.18694 1061.95 2.32044C1061.08 2.27184 1060.21 2.22327 1059.34 2.17519ZM1312.4 2.11293C1312.84 1.98409 1313.99 1.86602 1314.83 1.74338C1315.75 1.85205 1337.41 1.95629 1326.39 2.06289C1324.79 2.07841 1315.03 1.85058 1312.4 2.11293ZM312.265 1.7501C314.816 1.83651 317.357 1.92307 319.896 2.00948C315.987 2.0643 312.076 2.12055 308.167 2.17641C309.537 2.03434 310.895 1.89217 312.265 1.7501ZM748.789 2.24903C747.712 2.2442 751.29 2.067 747.045 2.09493C750.21 1.9816 753.173 1.88568 756.266 1.77909C757.193 1.86292 758.129 1.9464 759.055 2.03023C759.778 1.97642 760.514 1.92293 761.236 1.86911C760.802 1.99123 760.417 2.1105 759.96 2.23469C754.749 1.97286 753.554 2.26973 748.789 2.24903ZM593.857 2.72661C592.919 2.4612 600.465 2.30337 593.042 2.26094C594.45 2.08656 596.714 1.9951 601.058 1.97958C601.755 2.04626 602.451 2.11247 603.148 2.17915C603.245 2.0007 604.362 1.93437 606.804 1.80716C606.806 1.80736 606.808 1.80757 606.81 1.80777C613.414 1.79485 613.02 1.85435 614.608 2.14772C607.616 1.98213 607.407 2.25017 602.642 2.40955C599.369 2.51914 595.096 2.46951 593.857 2.72661ZM1289.32 2.11598C1294.27 1.89194 1289.83 1.68297 1298.6 1.92099C1298.04 1.97791 1297.47 2.03435 1296.9 2.09127C1294.38 2.10006 1291.85 2.10822 1289.32 2.11598ZM569.457 1.81693C570.023 2.22777 574.677 2.54757 575.472 1.87918C570.936 1.74309 573.151 2.12169 569.457 1.81693ZM821.34 2.58074C812.616 2.56157 814.266 2.09787 817.852 1.86606C818.405 1.9504 818.958 2.0349 819.5 2.11873C821.028 2.08044 822.556 2.04207 824.085 2.0043C823.17 2.19627 822.255 2.38877 821.34 2.58074ZM415.666 2.26826C422.333 1.97486 408.47 2.10508 413.127 1.9219C416.845 1.77548 421.745 2.07111 419.892 2.25636C418.604 2.26153 417.171 2.26515 415.679 2.26826C415.675 2.26826 415.671 2.26826 415.666 2.26826ZM454.244 2.18434C453.149 1.87086 454.727 1.96223 449.46 2.01864C447.956 2.03468 436.003 1.91694 441.021 2.17671C445.292 2.17671 449.804 2.18124 454.244 2.18434ZM922.177 2.12209C922.257 2.2586 913.053 2.55836 911.872 2.4834C911.872 2.4836 911.872 2.4838 911.872 2.48401C908.683 2.27961 918.391 2.25057 914.18 1.97012C923.506 2.2169 926.295 1.61997 925.646 2.4065C920.152 2.441 922.753 2.27887 922.177 2.12209ZM1621.83 2.28932C1621.84 2.28932 1621.84 2.28932 1621.84 2.28932C1621.23 2.2829 1616.13 2.08254 1616.75 2.01314C1622.88 2.07265 1621.79 2.20453 1627.49 1.98782C1627.8 2.05762 1628.07 2.12532 1628.4 2.19563C1626.14 2.23703 1624.89 2.32088 1621.83 2.28932ZM1335.82 2.38819C1333.57 2.42389 1329.46 2.27594 1326.9 2.28474C1335.06 1.71657 1344.81 2.24639 1335.82 2.38819ZM112.349 2.0458C112.355 2.04559 112.361 2.04539 112.368 2.04519C112.366 2.0455 112.364 2.04579 112.362 2.0461C112.358 2.046 112.353 2.0459 112.349 2.0458ZM1161.45 2.04732C1161.74 2.0842 1161.9 2.11624 1161.96 2.14436C1161.96 2.14701 1161.96 2.14965 1161.96 2.1523C1161.8 2.11777 1161.64 2.08284 1161.45 2.04732ZM941.305 2.08089C945.138 2.27128 932.366 2.57396 928.236 2.50171C928.525 2.41481 928.57 2.33603 929.243 2.23622C932.577 2.46125 940.667 2.04881 941.305 2.08089ZM650.114 2.15077C660.21 2.15595 647.07 2.90767 646.529 2.30793C646.549 2.29631 649.853 2.1518 650.114 2.15077ZM861.687 2.15962C859.115 2.38721 864.284 2.44765 856.019 2.40833C855.538 2.34938 855.057 2.29029 854.576 2.23133C856.946 2.20754 859.318 2.18342 861.687 2.15962ZM716.252 3.13766C728.959 3.01089 741.112 2.78724 732.835 2.15962C731.873 2.17978 730.898 2.19927 729.936 2.21943C729.792 2.52563 726.243 2.35849 721.049 2.34852C720.308 2.47008 717.427 2.49819 716.887 2.60149C715.842 2.80118 719.151 2.94158 716.252 3.13766ZM179.789 2.63933C179.993 2.58707 180.194 2.53453 180.398 2.48279C182.408 2.4238 184.423 2.36509 186.432 2.3061C186.108 2.4064 185.782 2.50669 185.458 2.60699C183.569 2.61785 181.69 2.62878 179.802 2.63964C179.798 2.63954 179.794 2.63944 179.789 2.63933ZM1046.96 2.82121C1048.11 2.24595 1044.08 2.3519 1035.9 2.64269C1039.58 2.7022 1043.28 2.7617 1046.96 2.82121ZM512.065 2.90452C511.801 2.74109 511.54 2.57816 511.264 2.41474C506.92 2.58498 507.726 2.77214 509.808 2.98844C510.565 2.96052 511.308 2.93243 512.065 2.90452ZM449.492 2.9741C451.294 3.00819 450.375 2.87624 450.563 2.87889C455.124 2.94823 455.766 3.00875 461.362 2.9094C462.048 2.87474 462.722 2.83829 463.407 2.8026C460.82 2.46014 458.942 2.64679 453.468 2.44556C454.455 2.56302 455.437 2.68065 456.424 2.79863C453.38 2.7738 450.349 2.74931 447.306 2.72447C446.944 2.7607 446.583 2.79658 446.222 2.83281C447.304 2.87936 448.422 2.93168 449.492 2.9741ZM156.55 2.49072C153.59 2.47727 150.616 2.46328 147.656 2.44983C147.548 2.53417 147.444 2.61908 147.335 2.70342C150.403 2.63254 153.482 2.5616 156.55 2.49072ZM1107.73 2.55908C1107.97 2.52916 1108.2 2.49906 1108.4 2.46844C1108.38 2.50575 1108.13 2.53488 1107.73 2.55908ZM1629.64 2.75194C1633 2.81092 1637.84 2.77219 1641.52 2.78459C1641.23 2.57301 1631.87 2.63149 1628.58 2.50323C1628.06 2.5412 1628.22 2.72712 1629.64 2.75194ZM809.272 2.56213C808.43 2.66768 807.588 2.77273 806.758 2.87828C804.724 2.86689 802.686 2.85487 800.64 2.84349C800.58 2.9299 800.521 3.01707 800.461 3.10348C809.472 2.99121 807.395 3.2404 811.856 3.48616C810.99 3.17832 810.138 2.87048 809.272 2.56213ZM62.3635 3.03879C68.8734 2.98032 71.1828 2.8711 67.5127 2.61187C65.2154 2.67136 62.904 2.7309 60.6064 2.79039C61.196 2.87316 61.7858 2.95602 62.3635 3.03879ZM1226.3 2.75438C1231.74 2.65751 1231.83 3.00543 1237.16 2.81114C1234.31 2.74699 1231.46 2.68212 1228.62 2.61797C1227.85 2.66333 1227.06 2.70902 1226.3 2.75438ZM959.112 3.70984C961.411 3.83087 965.707 3.25555 972.168 3.68024C973.708 3.55349 974.673 3.43241 975.997 3.30825C976.767 3.4433 977.642 3.58009 978.376 3.71411C978.38 3.71411 978.384 3.71411 978.388 3.71411C984.249 3.66857 980.449 3.49919 980.582 3.35585C980.644 3.29643 984.993 3.39576 983.634 3.26644C981.287 3.04445 972.519 3.1721 972.495 2.90147C975.576 2.98992 981.591 2.91601 979.812 2.73546C977.863 2.53729 972.194 2.8694 968.584 2.70494C973.757 3.13749 963.072 3.00388 961.857 2.67168C955.588 2.92679 961.35 3.03085 967.776 3.01895C963.853 3.27354 969.627 3.13599 970.578 3.34761C966.533 3.47535 952.651 3.36887 959.112 3.70984ZM663.33 3.24081C667.663 3.22439 674.432 3.36991 677.399 3.15506C679.127 3.02988 672.341 2.93295 677.02 2.73638C672.799 2.75554 671.836 2.83233 672.557 3.00461C671.595 3.0253 670.621 3.04547 669.659 3.06564C669.214 3.03203 668.757 2.99886 668.312 2.96525C667.807 3.03613 667.299 3.10645 666.805 3.17733C665.783 3.16337 664.749 3.14939 663.727 3.13492C663.607 3.17056 663.403 3.20158 663.33 3.24081ZM1382.72 2.7437C1381.51 2.74577 1380.32 2.74783 1379.12 2.75041C1379.25 2.79237 1379.41 2.83607 1379.56 2.87919C1379.67 2.91327 1379.78 2.94734 1379.89 2.98142C1379.19 2.85967 1373.46 2.65732 1371.04 2.78734C1369.83 2.85256 1372.59 3.08412 1367.45 3.12454C1371.18 3.11263 1374.63 3.08103 1378.25 3.06137C1377.93 3.13019 1377.62 3.19975 1377.29 3.26858C1377.29 3.26868 1377.29 3.26878 1377.3 3.26888C1378.5 3.2844 1379.72 3.30066 1380.92 3.31618C1381.52 3.12524 1382.11 2.93464 1382.72 2.7437ZM515.592 3.22768C519.696 3.09263 521.069 3.02249 519.132 2.80412C519.128 2.80402 519.123 2.80392 519.119 2.80382C517.591 2.90056 516.062 2.99728 514.534 3.09402C514.883 3.13853 515.231 3.18318 515.592 3.22768ZM1143.08 3.27987C1151.8 2.4504 1132.16 2.95888 1135.9 3.24142C1136.07 3.25435 1142.26 3.18828 1143.08 3.27987ZM822.943 2.83586C820.548 2.84258 818.149 2.84866 815.742 2.85539C816.295 2.95733 816.862 3.05891 817.416 3.16085C819.257 3.0527 821.102 2.94401 822.943 2.83586ZM90.7067 3.41536C93.2271 3.64304 99.697 3.72553 102.858 3.47792C101.198 3.44894 99.5365 3.41992 97.8759 3.39094C101.015 3.3625 104.12 3.33118 107.283 3.30428C107.451 2.98707 103.806 3.1711 98.3184 3.08365C97.4687 3.06955 92.0373 2.6758 90.1616 2.97257C89.7843 3.03357 95.5623 3.07504 91.5467 3.2524C93.3024 3.26636 94.8184 3.26326 96.4779 3.27102C96.5985 3.34657 96.7173 3.4222 96.8499 3.49775C94.7975 3.4704 92.7591 3.44271 90.7067 3.41536ZM688.556 3.21609C694.508 3.23359 695.243 3.10685 696.482 2.88285C693.715 2.90821 690.946 2.93318 688.178 2.95853C688.31 3.04421 688.425 3.1299 688.556 3.21609ZM143.905 3.48799C147.163 3.52462 145.767 3.3423 147.079 3.30764C152.036 3.17726 155.417 3.30756 160.314 3.22585C159.989 3.26104 159.691 3.29393 159.378 3.32808C159.382 3.32808 159.386 3.32808 159.391 3.32808C182.578 3.48175 170.399 3.06826 156.525 3.13553C156.199 3.06774 155.888 2.99986 155.563 2.93259C149.354 3.05109 143.628 3.1651 143.905 3.48799ZM1065.57 3.30825C1065.84 3.35068 1063.59 3.62033 1067.81 3.49409C1071.16 3.10039 1065.67 3.2958 1064.3 3.14438C1065.44 3.1066 1066.61 3.06985 1067.74 3.03208C1060.91 2.92082 1059.91 3.01443 1062.4 3.30214C1062.58 3.32148 1065.31 3.26595 1065.57 3.30825ZM1110.49 3.50233C1111.43 2.92225 1102.8 3.1831 1103.12 3.36318C1104.31 3.37035 1105.23 3.27214 1106.5 3.31557C1107.77 3.35903 1108.1 3.49453 1110.49 3.50233ZM863.361 3.36043C863.614 3.36302 866.153 3.60681 865.9 3.41597C862.76 2.96422 856.432 3.255 857.539 3.41231C859.632 3.40453 861.027 3.33674 863.361 3.36104C863.361 3.36084 863.361 3.36063 863.361 3.36043ZM51.4494 3.55207C51.5695 3.56825 57.9036 3.66625 58.7212 3.57526C59.3948 3.47282 59.7294 3.36304 60.2345 3.25698C56.745 3.3553 49.6812 3.2804 51.4623 3.55207C51.4577 3.55207 51.4538 3.55207 51.4494 3.55207Z" fill="black"/>
</svg>
